PathFileType	4	(X/Y/Z)	SUBJ24_2_walk_RCNL2025.trc
DataRate	CameraRate	NumFrames	NumMarkers	Units	OrigDataRate	OrigDataStartFrame	OrigNumFrames
100	100	10	25	mm	100	350	399
Frame#	Time	R_Shoulder			L_Shoulder			C7			J_Notch			R_Elbow			L_Elbow			R_Wrist			L_Wrist			R_Asis			L_Asis			Sacral			Thoracic			Sternum			R_Thigh_Lateral			R_Knee_Lateral			R_Shank_Lateral			R_Ankle_Lateral			R_Heel			R_Toe			L_Thigh_Lateral			L_Knee_Lateral			L_Shank_Lateral			L_Ankle_Lateral			L_Heel			L_Toe		
		X1	Y1	Z1	X2	Y2	Z2	X3	Y3	Z3	X4	Y4	Z4	X5	Y5	Z5	X6	Y6	Z6	X7	Y7	Z7	X8	Y8	Z8	X9	Y9	Z9	X10	Y10	Z10	X11	Y11	Z11	X12	Y12	Z12	X13	Y13	Z13	X14	Y14	Z14	X15	Y15	Z15	X16	Y16	Z16	X17	Y17	Z17	X18	Y18	Z18	X19	Y19	Z19	X20	Y20	Z20	X21	Y21	Z21	X22	Y22	Z22	X23	Y23	Z23	X24	Y24	Z24	X25	Y25	Z25
350	3.49000000	774.965759	1303.102783	377.303406	735.493286	1304.955811	34.161469	670.471741	1365.331787	213.109985	806.434265	1278.101318	202.082169	788.047119	1023.801453	480.113800	645.844421	1019.558167	-32.478344	939.754852	842.736450	449.183075	648.412262	784.121674	-26.697424	780.347656	858.947510	375.766510	798.112976	869.279175	50.540833	613.825562	903.814758	215.454163	611.262573	1098.222168	219.040695	883.910278	1061.216797	197.919281	648.451904	560.873718	404.111511	683.782104	417.822815	337.642639	573.522339	318.607361	382.087219	402.404236	157.518097	305.629517	360.213867	179.447266	246.630722	460.915070	42.445667	281.046204	841.897034	563.956482	39.155304	896.973083	447.295746	102.740265	905.509888	290.383362	57.775944	908.620605	66.681297	129.870468	860.839844	41.022682	187.133530	1027.204224	48.830471	161.454727
351	3.50000000	787.534241	1304.948730	376.419861	748.134277	1306.511841	33.525928	682.902039	1367.092041	212.306839	818.760681	1279.736206	201.274017	797.764771	1025.111694	478.870880	662.600830	1020.069153	-33.757648	945.140106	840.308380	449.841049	669.541016	784.772247	-28.151459	793.048706	859.437195	374.195648	809.529114	871.683350	49.317970	625.839172	905.424683	215.286880	623.533875	1099.956665	218.593063	896.103455	1062.755493	197.076004	667.302368	559.276672	404.550781	706.067810	417.350647	339.597443	593.084961	321.992737	384.000427	418.052582	165.756073	307.139282	378.782471	191.124283	247.550766	467.167236	45.236870	281.851166	851.201172	565.329102	38.053104	904.168030	447.585083	101.900444	909.715820	290.343079	57.392799	909.118958	66.748726	130.051208	860.972839	41.238049	187.209579	1027.374268	48.555038	161.461609
352	3.51000000	799.869385	1306.852295	375.685944	760.676575	1308.242676	33.022942	695.220703	1368.968872	211.617523	830.948792	1281.439941	200.633911	807.383850	1026.498047	477.677307	679.414062	1020.799072	-35.066486	950.118256	837.906128	450.509598	691.240997	785.729614	-29.649321	805.477783	860.202576	372.732513	820.666199	873.966492	48.083786	637.608948	907.207397	214.979828	635.616760	1101.833618	218.095337	908.014282	1064.329712	196.357895	686.549927	557.959717	405.096466	728.958862	417.292114	341.470276	613.742065	325.454468	385.755035	435.191010	174.040802	308.274567	398.594360	202.253632	248.148270	475.815247	49.196808	283.038116	859.270142	566.408997	37.071354	910.206726	447.657623	101.020622	913.149292	290.203461	57.006207	909.440735	66.805664	130.208282	861.030945	41.363998	187.295242	1027.433960	48.450443	161.436890
353	3.52000000	811.956177	1308.765503	375.122803	773.135620	1310.103516	32.651146	707.426697	1370.941650	211.035522	842.998535	1283.196655	200.162369	816.878601	1027.913574	476.551971	696.256592	1021.732483	-36.413227	954.740173	835.559174	451.189224	713.438385	786.996124	-31.164510	817.656494	861.274353	371.434845	831.560547	876.073181	46.862247	649.158997	909.147766	214.530853	647.527039	1103.815430	217.547119	919.681702	1065.926270	195.790848	706.061401	557.097168	405.713684	752.282715	417.734650	343.234131	635.328308	328.969391	387.278961	453.703186	182.189148	308.980499	419.290009	212.405823	248.345428	487.452728	54.228973	284.646973	866.349304	567.242920	36.242035	915.364685	447.601807	100.170181	916.089355	290.008270	56.627789	909.643616	66.850815	130.333984	861.036255	41.427258	187.374771	1027.428345	48.436115	161.398041
354	3.53000000	823.795105	1310.651245	374.741455	785.524475	1312.062256	32.402912	719.522461	1372.990601	210.557678	854.915649	1284.994629	199.847504	826.220825	1029.324463	475.510284	713.114380	1022.859131	-37.803074	959.051788	833.300659	451.880966	736.060272	788.581451	-32.674940	829.604370	862.675476	370.337952	842.241089	877.972778	45.675056	660.518250	911.221375	213.962311	659.272461	1105.875488	216.944031	931.149231	1067.536377	195.388718	725.728577	556.826538	406.372620	775.882935	418.732727	344.865723	657.651489	332.527985	388.504028	473.484406	189.952286	309.237854	440.582092	221.172134	248.085266	502.508362	60.057941	286.668030	872.756287	567.921265	35.568821	919.918640	447.498688	99.413406	918.736755	289.791718	56.269653	909.771301	66.886314	130.427048	861.007202	41.451862	187.437134	1027.389038	48.460041	161.357513
355	3.54000000	835.400635	1312.483643	374.537994	797.848022	1314.101562	32.264236	731.512024	1375.095337	210.183701	866.709656	1286.824219	199.667999	835.382874	1030.712769	474.563812	729.981323	1024.174438	-39.237377	963.091156	831.164856	452.586044	759.039398	790.504883	-34.165732	841.342041	864.411621	369.453003	852.729370	879.657104	44.540821	671.715881	913.397034	213.312576	670.855103	1107.994751	216.274887	942.456604	1069.153076	195.150284	745.469604	557.209106	407.050140	799.626526	420.297943	346.344879	680.515137	336.116852	389.385254	494.461884	197.030716	309.077454	462.324249	228.237762	247.367615	521.119446	66.264168	289.036682	878.794312	568.546021	35.029484	924.079956	447.401276	98.794975	921.195679	289.575623	55.944450	909.853638	66.914787	130.492828	860.957642	41.456398	187.477264	1027.336304	48.492096	161.324112
356	3.55000000	846.797852	1314.246948	374.492828	810.101990	1316.214111	32.216812	743.399841	1377.233643	209.911865	878.393005	1288.675049	199.597549	844.341675	1032.073853	473.720581	746.853027	1025.677490	-40.714169	966.889374	829.182831	453.304581	782.317657	792.794800	-35.629677	852.897339	866.462219	368.774139	863.041260	881.135071	43.475498	682.778564	915.639343	212.627960	682.280518	1110.154419	215.529739	953.635193	1070.769165	195.059738	765.224121	558.208252	407.729095	823.402954	422.400482	347.652771	703.761230	339.691833	389.921112	516.594604	203.110382	308.583710	484.529175	233.425980	246.265259	543.086670	72.357452	291.649048	884.707275	569.202637	34.587906	927.964233	447.329651	98.332405	923.488159	289.371826	55.663910	909.911133	66.939835	130.540161	860.897217	41.453308	187.496094	1027.282715	48.517147	161.303238
357	3.56000000	858.017334	1315.932739	374.574036	822.276794	1318.397583	32.240398	755.191528	1379.382080	209.733505	889.978394	1290.532593	199.609589	853.081299	1033.411255	472.985321	763.721130	1027.367065	-42.229687	970.473053	827.379791	454.034088	805.842194	795.481598	-37.061599	864.310486	868.779724	368.284546	873.188782	882.427063	42.492779	693.729309	917.909363	211.956650	693.562927	1112.334229	214.709259	964.708191	1072.377197	195.088821	784.947327	559.701355	408.395782	847.118225	424.978668	348.772461	727.304565	343.156952	390.161469	539.845886	207.905991	307.878815	507.309326	236.691101	244.910385	567.953430	77.870781	294.381409	890.653320	569.943604	34.209602	931.603760	447.280670	98.018082	925.590942	289.186646	55.436333	909.957275	66.965446	130.578674	860.832275	41.449997	187.499008	1027.235474	48.529140	161.296768
358	3.57000000	869.090271	1317.537476	374.741943	834.361755	1320.649536	32.314205	766.894836	1381.515137	209.632584	901.477661	1292.376831	199.680084	861.594666	1034.731323	472.359558	780.568604	1029.236450	-43.780430	973.867493	825.773254	454.768265	829.557922	798.588379	-38.452047	875.634644	871.296692	367.961578	883.186096	883.561646	41.603889	704.587830	920.165405	211.345428	704.722778	1114.511841	213.827744	975.690918	1073.968628	195.200592	804.603455	561.521973	409.036957	870.686401	427.951599	349.694061	751.123474	346.366180	390.197754	564.156006	211.201126	307.091522	530.779297	238.073837	243.461029	595.172424	82.437553	297.093292	896.688232	570.784241	33.870762	934.992920	447.243469	97.827026	927.473389	289.023102	55.263657	909.999634	66.993576	130.616211	860.767395	41.450245	187.493042	1027.197998	48.526939	161.302826
359	3.58000000	880.044128	1319.058960	374.955109	846.347717	1322.962646	32.418110	778.520569	1383.604370	209.589417	912.902100	1294.182129	199.788864	869.882446	1036.038086	471.841248	797.368713	1031.270752	-45.365463	977.099426	824.370941	455.497284	853.405609	802.125702	-39.786675	886.931274	873.934509	367.779907	893.057007	884.573303	40.817310	715.371704	922.365479	210.837143	715.783630	1116.659424	212.905136	986.593079	1075.533325	195.355225	824.156433	563.513672	409.637482	894.024963	431.231903	350.420319	775.210693	349.147278	390.134338	589.443420	212.872910	306.329742	554.992493	237.654404	242.071884	624.263855	85.829041	299.630432	902.768921	571.702026	33.560875	938.134277	447.210205	97.726158	929.120178	288.882843	55.139313	910.040588	67.023758	130.656662	860.705872	41.455002	187.483734	1027.170654	48.511856	161.316086
